PathFileType	4	(X/Y/Z)	C:\Users\JDoe\SprintCalib.trc
DataRate	CameraRate	NumFrames	NumMarkers	Units	OrigDataRate	OrigDataStartFrame	OrigNumFrames
250.00	250.00	       4	65	mm	250.00	253	       337
Frame#	Time	C7			T8			T12			IJ			PX			R.AA			R.AC			R.Scapula			R.HeadHum			R.Hum			R.Epi.Med			R.Epi.Lat			R.Ulna			R.Wrist.Uln			R.Wrist.Rad			R.Hand			R.Hand2			R.Hand5			L.AA			L.AC			L.Scapula			L.HeadHum			L.Hum			L.Epi.Med			L.Epi.Lat			L.Ulna			L.Wrist.Uln			L.Wrist.Rad			L.Hand			L.Hand2			L.Hand5			Tete.H			Tete.D			Tete.G			Sacral			R.EIAS			LEIAS			R.Crete			L.Crete			R.GT			R.Hip			R.Knee.Med			R.Knee.Lat			R.TTA			R.Fibula			R.Ankle.Med			R.Ankle.Lat			R.Calca			R.Foot.Med			R.Foot.Lat			L.GT			L.Hip			L.Knee.Med			L.Knee.Lat			L.TTA			L.Fibula			L.Ankle.Med			L.Ankle.Lat			L.Calca			L.Foot.Med			L.Foot.Lat			StartG			StartD			StartAvt			StartArr			
		X1	Y1	Z1	X2	Y2	Z2	X3	Y3	Z3	X4	Y4	Z4	X5	Y5	Z5	X6	Y6	Z6	X7	Y7	Z7	X8	Y8	Z8	X9	Y9	Z9	X10	Y10	Z10	X11	Y11	Z11	X12	Y12	Z12	X13	Y13	Z13	X14	Y14	Z14	X15	Y15	Z15	X16	Y16	Z16	X17	Y17	Z17	X18	Y18	Z18	X19	Y19	Z19	X20	Y20	Z20	X21	Y21	Z21	X22	Y22	Z22	X23	Y23	Z23	X24	Y24	Z24	X25	Y25	Z25	X26	Y26	Z26	X27	Y27	Z27	X28	Y28	Z28	X29	Y29	Z29	X30	Y30	Z30	X31	Y31	Z31	X32	Y32	Z32	X33	Y33	Z33	X34	Y34	Z34	X35	Y35	Z35	X36	Y36	Z36	X37	Y37	Z37	X38	Y38	Z38	X39	Y39	Z39	X40	Y40	Z40	X41	Y41	Z41	X42	Y42	Z42	X43	Y43	Z43	X44	Y44	Z44	X45	Y45	Z45	X46	Y46	Z46	X47	Y47	Z47	X48	Y48	Z48	X49	Y49	Z49	X50	Y50	Z50	X51	Y51	Z51	X52	Y52	Z52	X53	Y53	Z53	X54	Y54	Z54	X55	Y55	Z55	X56	Y56	Z56	X57	Y57	Z57	X58	Y58	Z58	X59	Y59	Z59	X60	Y60	Z60	X61	Y61	Z61	X62	Y62	Z62	X63	Y63	Z63	X64	Y64	Z64	X65	Y65	Z65	

253	1.008	-89.13174	90.74104	1480.16760	-42.98141	74.08736	1255.44031	-81.85423	74.79462	1130.82886	-232.91370	87.73990	1400.70374	-280.26367	82.95847	1251.91602	-41.74203	175.94109	1436.01831	-190.65312	205.57224	1419.51160	-109.15060	227.69101	1456.85938	-85.30984	312.82773	1403.94812	-44.90271	372.01816	1274.67261	-96.41455	394.51129	1151.22778	-48.78858	444.85291	1227.51025	-39.00446	559.64587	1136.67639	-41.27060	657.58459	1024.89941	-79.10185	678.01788	1064.77307	-47.27399	709.41602	1001.69061	-58.14583	697.91400	956.15021	-69.87546	756.58057	1013.50793	-42.43998	-11.29728	1432.24304	-193.50528	-26.53832	1430.34851	-123.76147	-60.77843	1468.14880	-105.62267	-156.63730	1424.55603	-66.07974	-197.58937	1285.87207	-143.62491	-256.99301	1203.61121	-92.52119	-299.57993	1280.08557	-99.51920	-387.64249	1161.92566	-139.31064	-531.82843	1088.82837	-174.32632	-559.41980	1135.09143	-160.74187	-593.41797	1075.69470	-190.74927	-639.29907	1084.06262	-174.07994	-585.21545	1029.47009	-131.38106	81.89167	1729.31177	-245.00745	81.59966	1715.27991	-47.41621	91.88916	1648.64697	-49.32485	70.52375	1025.42188	-260.97742	152.13298	1012.11548	-268.66885	2.86118	1021.80103	-154.18414	228.20094	1054.12561	-171.96092	-73.67957	1060.31519	-116.19595	241.82800	927.21014	-249.46826	220.71040	752.17950	-116.79513	142.16020	484.07370	-122.06940	263.08286	520.14978	-169.73482	215.16835	409.14810	-112.96334	281.70685	388.11856	-112.39944	170.58150	96.73180	-74.69006	253.84972	89.89230	-26.57147	191.11574	60.33487	-251.25380	249.02031	58.26013	-230.37932	303.13245	50.20866	-122.29533	-90.52524	937.54669	-119.26577	-124.47962	761.36096	-119.53640	2.19839	500.21671	-121.22610	-121.57600	522.50140	-176.71172	-90.52880	419.73160	-85.86850	-138.44469	349.14395	-135.52309	-44.61129	100.11027	-84.78790	-123.94436	86.50141	-44.86273	-54.57544	66.56592	-271.60208	-110.29005	52.83084	-240.00494	-177.69649	58.37443	-594.30823	266.49527	25.54544	-929.95142	-121.84692	33.68814	-519.44012	71.87989	45.07010	-1119.92188	77.32641	55.42524	-61.62888	164.04370	1149.45105	-39.08597	-12.91263	1264.17285	-11.55138	650.24347	18.88408	-4.15141	-539.72015	34.39244	-284.81857	79.93513	1046.44043	
254	1.012	-89.13174	90.74104	1480.16760	-43.09322	74.14796	1255.60120	-81.85423	74.79462	1130.82886	-232.86316	87.92017	1400.77869	-280.04538	82.71202	1251.78271	-41.67298	175.69868	1435.96265	-190.03233	205.56757	1419.22339	-109.15060	227.69101	1456.85938	-85.27552	312.98962	1403.96765	-44.70237	372.01105	1274.65393	-96.56145	394.87064	1151.31946	-48.78731	444.99435	1227.64063	-39.24946	560.00183	1136.76196	-41.22517	657.40381	1024.82336	-79.21368	678.28772	1065.15833	-47.53804	709.51154	1001.56891	-58.14583	697.91400	956.15021	-69.90244	756.81689	1013.56085	-42.04113	-10.52864	1431.46558	-193.36986	-26.37390	1430.20813	-123.76147	-60.77843	1468.14880	-105.73561	-156.74345	1424.62012	-66.10144	-197.42255	1285.71838	-143.62491	-256.99301	1203.61121	-92.36736	-299.42950	1280.04626	-99.57935	-387.33896	1161.98999	-139.61523	-531.59930	1088.90857	-174.32632	-559.41980	1135.09143	-160.57129	-593.11920	1075.57788	-190.74927	-639.29907	1084.06262	-174.57379	-585.66229	1029.30896	-131.26161	81.80511	1729.47522	-244.71304	81.51892	1715.17749	-47.33353	92.09346	1648.66809	-49.32485	70.52375	1025.42188	-260.97742	152.13298	1012.11548	-268.63260	3.01771	1021.59827	-153.95992	228.32805	1054.03442	-171.96349	-73.62266	1060.25366	-116.19595	241.82800	927.21014	-249.58731	220.49159	752.26544	-116.79513	142.16020	484.07370	-122.01974	263.16916	520.09320	-169.73482	215.16835	409.14810	-112.63240	281.61490	388.07687	-112.39944	170.58150	96.73180	-74.69006	253.84972	89.89230	-26.57147	191.11574	60.33487	-251.43428	249.00926	58.39801	-230.37932	303.13245	50.20866	-122.37798	-90.50343	937.64752	-119.06126	-124.55423	761.28717	-119.39245	1.57256	499.88058	-121.36158	-121.72652	522.62744	-176.72362	-90.73824	419.96252	-86.02497	-138.60294	349.30496	-135.52309	-44.61129	100.11027	-84.66457	-124.20406	86.46397	-44.86273	-54.57544	66.56592	-271.46942	-110.36100	52.87281	-240.00177	-177.74754	58.63821	-594.44623	266.47354	25.50540	-929.84222	-121.89194	33.69976	-519.47772	71.85072	44.91535	-1119.97388	77.39835	55.47486	-61.68563	164.16747	1149.29785	-38.69945	-13.12312	1264.32300	-11.59724	650.19177	18.90583	-4.26367	-539.61664	34.37408	-284.86697	79.98848	1046.23706	
255	1.016	-89.10004	90.87527	1480.04041	-42.78948	73.91660	1255.71167	-81.85423	74.79462	1130.82886	-232.90736	88.07034	1400.69885	-279.90652	83.07548	1251.73096	-41.74203	175.94109	1436.01831	-190.32103	205.58138	1419.33740	-109.17280	227.85483	1456.85657	-85.27590	312.89655	1403.89026	-44.70237	372.01105	1274.65393	-96.56145	394.87064	1151.31946	-48.67926	444.94907	1227.55615	-39.36372	559.91736	1136.84204	-41.23291	657.65588	1024.71350	-79.28443	678.22040	1064.94861	-47.53804	709.51154	1001.56891	-58.14583	697.91400	956.15021	-69.90244	756.81689	1013.56085	-41.92669	-10.50374	1431.58105	-193.36986	-26.37390	1430.20813	-123.55569	-60.68724	1468.15906	-105.46888	-156.63492	1424.88672	-65.89805	-197.68623	1285.79224	-143.64255	-256.60965	1204.04089	-92.36433	-299.58957	1280.04749	-99.57935	-387.33896	1161.98999	-139.30980	-531.76306	1089.10242	-174.38013	-559.37701	1135.12878	-160.88281	-593.01038	1075.44910	-190.74927	-639.29907	1084.06262	-174.07994	-585.21545	1029.47009	-131.18752	81.80927	1729.36633	-244.60693	81.51597	1715.18286	-47.28306	92.22670	1648.57727	-49.44695	70.65632	1025.20178	-260.97742	152.13298	1012.11548	-268.28485	3.10963	1021.28088	-153.95992	228.32805	1054.03442	-171.79614	-73.66773	1060.47888	-116.19595	241.82800	927.21014	-249.61047	220.56870	752.34497	-116.85249	142.43993	483.99155	-122.06940	263.08286	520.14978	-169.73482	215.16835	409.14810	-112.96334	281.70685	388.11856	-112.05899	170.65979	96.51948	-74.69006	253.84972	89.89230	-26.32944	191.50908	60.52911	-251.40851	248.90248	58.25263	-230.37932	303.13245	50.20866	-122.25848	-90.57574	937.40100	-119.08890	-124.68171	761.21429	-119.68200	1.80736	499.92508	-121.21422	-121.22374	521.83588	-176.71172	-90.52880	419.73160	-86.02497	-138.60294	349.30496	-135.52309	-44.61129	100.11027	-84.66122	-123.91164	86.46818	-45.00479	-54.63418	66.54613	-271.49582	-110.45239	53.02100	-239.94467	-177.65396	58.35837	-594.30823	266.49527	25.54544	-929.88293	-121.75831	33.64227	-519.44012	71.87989	45.07010	-1120.05334	77.42271	55.64824	-61.64179	163.94708	1149.64429	-39.08597	-12.91263	1264.17285	-11.54067	650.23035	18.91148	-4.31869	-539.59503	34.32436	-284.41031	80.01465	1046.56470	
256	1.020	-89.16744	91.01105	1479.85815	-43.09322	74.14796	1255.60120	-81.85423	74.79462	1130.82886	-232.86316	87.92017	1400.77869	-279.90652	83.07548	1251.73096	-41.74203	175.94109	1436.01831	-190.03233	205.56757	1419.22339	-109.17399	227.77399	1456.96472	-85.27552	312.98962	1403.96765	-44.95141	372.03906	1274.71924	-96.56145	394.87064	1151.31946	-48.68380	445.30698	1227.58765	-39.17909	559.94568	1136.63879	-41.29298	657.73938	1025.15198	-79.44588	678.50800	1065.23047	-47.48131	709.62415	1001.46490	-58.14583	697.91400	956.15021	-69.90244	756.81689	1013.56085	-41.94245	-10.60550	1431.71179	-193.36986	-26.37390	1430.20813	-123.55569	-60.68724	1468.15906	-105.46566	-156.30833	1425.02441	-66.10144	-197.42255	1285.71838	-143.64255	-256.60965	1204.04089	-92.18851	-299.57495	1280.30701	-99.31223	-387.29340	1162.13196	-139.56334	-531.49146	1089.05371	-174.18762	-559.32025	1135.13269	-160.61736	-593.12238	1075.71338	-190.74927	-639.29907	1084.06262	-174.57379	-585.66229	1029.30896	-131.18736	81.99486	1729.20105	-244.70511	81.58759	1715.28625	-47.23175	92.35046	1648.60388	-49.25702	70.62150	1025.53406	-260.69113	152.20030	1012.06427	-268.21548	3.22105	1021.36816	-153.95992	228.32805	1054.03442	-171.79614	-73.66773	1060.47888	-116.14129	241.92145	927.00317	-249.61047	220.56870	752.34497	-116.85249	142.43993	483.99155	-122.06940	263.08286	520.14978	-169.73482	215.16835	409.14810	-112.55137	281.84711	387.87054	-112.05899	170.65979	96.51948	-74.69006	253.84972	89.89230	-26.45563	191.23613	60.54612	-251.40851	248.90248	58.25263	-230.37932	303.13245	50.20866	-122.20790	-90.49850	937.56775	-119.08890	-124.68171	761.21429	-119.53640	2.19839	500.21671	-121.18696	-121.15668	521.98340	-176.71172	-90.52880	419.73160	-85.72210	-138.27367	349.01138	-135.52309	-44.61129	100.11027	-84.65395	-123.75864	86.40575	-44.77048	-54.59390	66.50397	-271.46942	-110.36100	52.87281	-240.08194	-177.85811	58.58447	-594.51868	266.54337	25.46199	-929.94958	-121.88136	33.77372	-519.43732	71.93488	45.13861	-1120.00781	77.50151	55.50018	-61.70451	164.38016	1149.28833	-39.04238	-12.87491	1264.05920	-11.60403	650.22101	18.77941	-4.16119	-539.64282	34.38654	-284.41031	80.01465	1046.56470	
